HIERARCHY
ROOT Hips
{
	OFFSET	0.000000	0.000000	0.000000
	CHANNELS 6 Xposition Yposition Zposition Zrotation Xrotation Yrotation
	JOINT LeftUpLeg
	{
		OFFSET	12.811937	-7.635976	0.557276
		CHANNELS 3 Zrotation Xrotation Yrotation
		JOINT LeftLeg
		{
			OFFSET	-0.429270	-42.206159	-1.204951
			CHANNELS 3 Zrotation Xrotation Yrotation
			JOINT LeftFoot
			{
				OFFSET	-2.112259	-42.464481	-3.973220
				CHANNELS 3 Zrotation Xrotation Yrotation
				JOINT LeftFootHeel
				{
					OFFSET	0.387196	-5.329707	-3.419729
					CHANNELS 3 Zrotation Xrotation Yrotation
					End Site
					{
						OFFSET	0.327567	-0.000003	16.505428
					}
				}
			}
		}
	}
	JOINT RightUpLeg
	{
		OFFSET	-12.811937	-7.635976	0.557276
		CHANNELS 3 Zrotation Xrotation Yrotation
		JOINT RightLeg
		{
			OFFSET	0.429270	-42.206159	-1.204951
			CHANNELS 3 Zrotation Xrotation Yrotation
			JOINT RightFoot
			{
				OFFSET	2.112259	-42.464481	-3.973220
				CHANNELS 3 Zrotation Xrotation Yrotation
				JOINT RightFootHeel
				{
					OFFSET	-0.387198	-5.329707	-3.419729
					CHANNELS 3 Zrotation Xrotation Yrotation
					End Site
					{
						OFFSET	-0.327566	-0.000003	16.505428
					}
				}
			}
		}
	}
	JOINT Spine
	{
		OFFSET	0.000000	13.731315	-1.007646
		CHANNELS 3 Zrotation Xrotation Yrotation
		JOINT Spine1
		{
			OFFSET	0.000000	12.091746	-0.604589
			CHANNELS 3 Zrotation Xrotation Yrotation
			JOINT LeftShoulder
			{
				OFFSET	5.746115	20.990027	-0.833816
				CHANNELS 3 Zrotation Xrotation Yrotation
				JOINT LeftArm
				{
					OFFSET	10.881538	-1.359258	0.219250
					CHANNELS 3 Zrotation Xrotation Yrotation
					JOINT LeftForeArm
					{
						OFFSET	4.390314	-31.537147	0.202818
						CHANNELS 3 Zrotation Xrotation Yrotation
						JOINT LeftHand
						{
							OFFSET	3.168650	-24.865023	5.373370
							CHANNELS 3 Zrotation Xrotation Yrotation
							End Site
							{
								OFFSET	1.457528	-10.806075	2.170267
							}
						}
					}
				}
			}
			JOINT RightShoulder
			{
				OFFSET	-5.746115	20.990027	-0.833816
				CHANNELS 3 Zrotation Xrotation Yrotation
				JOINT RightArm
				{
					OFFSET	-10.881538	-1.359258	0.219250
					CHANNELS 3 Zrotation Xrotation Yrotation
					JOINT RightForeArm
					{
						OFFSET	-4.390314	-31.537147	0.202818
						CHANNELS 3 Zrotation Xrotation Yrotation
						JOINT RightHand
						{
							OFFSET	-3.168650	-24.865023	5.373370
							CHANNELS 3 Zrotation Xrotation Yrotation
							End Site
							{
								OFFSET	-1.457528	-10.806075	2.170267
							}
						}
					}
				}
			}
			JOINT Neck
			{
				OFFSET	0.000000	27.075639	0.680489
				CHANNELS 3 Zrotation Xrotation Yrotation
				JOINT Head
				{
					OFFSET	0.000000	12.391287	1.239129
					CHANNELS 3 Zrotation Xrotation Yrotation
					End Site
					{
						OFFSET	0.000000	13.818691	-0.105853
					}
				}
			}
		}
	}
}
MOTION
Frames:    20
Frame Time: 0.016667
0.000000	100.476860	0.000000	0.610903	0.107987	1.594161	-0.502596	1.313187	-5.113555	-0.486058	-0.981707	3.391104	-1.725988	-1.068741	-8.742738	0.	0.	0.	-2.225089	0.629559	-6.340547	1.081560	-2.305781	0.731870	0.320702	1.938487	2.215783	0.	0.	0.	0.000000	0.000000	-0.000000	0.189385	3.096473	-5.833400	-1.661409	-2.125861	1.782243	2.466890	-1.734421	-5.511027	-0.873503	-1.815466	-0.964206	-0.080372	1.005033	-18.840343	0.234667	-0.587519	-0.232967	-3.123612	-1.431228	8.143289	6.393537	-6.305503	1.694005	-4.665142	-0.498898	1.125639	-0.077896	-2.527043	-1.329711	0.037244	-1.315645	1.295977	
-0.008357	100.476482	0.008137	0.609540	0.107520	1.581850	-0.502845	1.310144	-5.128630	-0.482530	-0.947239	3.406989	-1.729666	-1.100131	-8.732071	0.	0.	0.	-2.212363	0.636860	-6.349362	1.071809	-2.313956	0.753056	0.320702	1.938487	2.215784	0.	0.	0.	0.000000	-0.000000	-0.000000	0.180005	3.034710	-5.820610	-1.668290	-2.090880	1.751354	2.485862	-1.731738	-5.478528	-0.855598	-1.832589	-0.952831	-0.107794	1.047263	-18.851507	0.240926	-0.577466	-0.264666	-3.119436	-1.434668	8.171748	6.397555	-6.256337	1.704903	-4.778728	-0.513776	1.571024	-0.074178	-2.464111	-1.329546	0.037244	-1.315645	1.295977	
-0.030520	100.475416	0.020489	0.609540	0.107520	1.581850	-0.503335	1.308934	-5.138487	-0.478420	-0.913352	3.416847	-1.735193	-1.132568	-8.732970	0.	0.	0.	-2.200306	0.643717	-6.366918	1.077769	-2.310508	0.768389	0.303994	1.927451	2.218766	0.	0.	0.	0.000000	-0.000000	-0.000000	0.168985	2.966719	-5.820118	-1.671368	-2.060715	1.729373	2.497452	-1.702724	-5.455873	-0.847617	-1.840855	-0.948462	0.068128	0.997680	-18.897669	0.247460	-0.560791	-0.295922	-3.104255	-1.435614	8.161199	6.405076	-6.226942	1.774821	-4.903889	-0.515000	1.991192	-0.070117	-2.395354	-1.329374	0.075156	-1.336570	1.302061	
-0.040270	100.475057	0.025241	0.609540	0.107520	1.581850	-0.504255	1.306661	-5.157006	-0.475605	-0.894521	3.435389	-1.738002	-1.149064	-8.733424	0.	0.	0.	-2.193410	0.646536	-6.371008	1.077255	-2.309982	0.771667	0.298048	1.923519	2.219823	0.	0.	0.	0.000000	-0.000000	-0.000000	0.163055	2.930133	-5.819867	-1.674788	-2.038549	1.713068	2.508851	-1.706738	-5.438335	-0.843914	-1.838437	-0.944807	0.110118	1.021019	-18.920639	0.250863	-0.549683	-0.311457	-3.095482	-1.434520	8.151139	6.410862	-6.216884	1.804440	-4.970130	-0.516123	2.214270	-0.067932	-2.358356	-1.329277	0.077355	-1.348150	1.291735	
-0.065196	100.473711	0.042519	0.607432	0.120857	1.565028	-0.504604	1.288944	-5.174345	-0.470203	-0.857719	3.469504	-1.743540	-1.181545	-8.734342	0.	0.	0.	-2.176704	0.637255	-6.355865	1.080922	-2.303924	0.770267	0.279636	1.911353	2.223130	0.	0.	0.	0.000000	0.000000	0.000000	0.152048	2.843308	-5.802467	-1.681315	-1.993205	1.681219	2.530360	-1.710644	-5.410817	-0.839763	-1.830669	-0.932733	0.162128	1.052662	-18.923037	0.257670	-0.527245	-0.342624	-3.077022	-1.398022	8.119006	6.421343	-6.234034	1.883183	-5.112561	-0.519518	2.685707	-0.063543	-2.284050	-1.329107	0.088809	-1.370626	1.248379	
-0.097752	100.471831	0.064306	0.604053	0.123508	1.534815	-0.504493	1.279802	-5.194056	-0.461976	-0.800244	3.519529	-1.752252	-1.232634	-8.735822	0.	0.	0.	-2.149032	0.641109	-6.327628	1.076740	-2.301003	0.769349	0.259916	1.898326	2.226674	0.	0.	0.	0.000000	-0.000000	-0.000000	0.140340	2.728413	-5.793970	-1.694007	-1.922060	1.658411	2.558068	-1.697600	-5.416222	-0.846993	-1.807983	-0.879075	0.177347	1.058480	-18.905148	0.263504	-0.490024	-0.365950	-3.048142	-1.329189	8.061073	6.438308	-6.280474	2.014029	-5.361880	-0.528607	3.515380	-0.068903	-2.172749	-1.377534	0.125981	-1.413882	1.219968	
-0.109495	100.471191	0.071211	0.603006	0.123133	1.525221	-0.504413	1.278200	-5.199607	-0.459267	-0.780598	3.534684	-1.755265	-1.250319	-8.736308	0.	0.	0.	-2.138682	0.643435	-6.315436	1.074119	-2.299912	0.765791	0.253254	1.893920	2.227881	0.	0.	0.	0.000000	-0.000000	-0.000000	0.135697	2.658200	-5.828599	-1.694417	-1.865908	1.687046	2.559439	-1.683862	-5.408743	-0.847158	-1.807876	-0.869186	0.168934	1.055676	-18.876310	0.264126	-0.466256	-0.349919	-3.029700	-1.286932	8.023590	6.448554	-6.310222	2.109225	-5.555152	-0.535129	4.137436	-0.076136	-2.103464	-1.392104	0.154247	-1.415537	1.210762	
-0.143372	100.469922	0.085605	0.599977	0.122045	1.497344	-0.503004	1.276492	-5.191813	-0.452378	-0.723607	3.554786	-1.764490	-1.304429	-8.737848	0.	0.	0.	-2.102353	0.645601	-6.263137	1.053277	-2.297135	0.739288	0.239775	1.885013	2.230278	0.	0.	0.	0.000000	0.000000	-0.000000	0.133667	2.598746	-5.847732	-1.677307	-1.842916	1.678798	2.545583	-1.645492	-5.381604	-0.847649	-1.807564	-0.840112	0.140018	1.046282	-18.777029	0.264142	-0.448613	-0.328725	-3.012858	-1.248657	7.989559	6.444577	-6.324820	2.265847	-5.774539	-0.545599	4.816763	-0.083780	-2.044339	-1.404060	0.185199	-1.391213	1.199081	
-0.163107	100.468769	0.090553	0.598282	0.109971	1.479915	-0.502407	1.285922	-5.194073	-0.447753	-0.687520	3.574614	-1.770190	-1.337846	-8.738815	0.	0.	0.	-2.087670	0.652000	-6.236225	1.053250	-2.284390	0.728097	0.225899	1.875835	2.232787	0.	0.	0.	0.000000	0.000000	-0.000000	0.132719	2.561258	-5.879167	-1.687796	-1.803373	1.690223	2.557662	-1.636556	-5.377012	-0.845789	-1.811036	-0.805335	0.119766	1.044306	-18.716753	0.251650	-0.421221	-0.331001	-2.987040	-1.232384	7.992027	6.429296	-6.330643	2.471409	-6.069036	-0.566473	5.712765	-0.089776	-1.995878	-1.396006	0.228889	-1.350271	1.120598	
-0.192009	100.467858	0.090618	0.596658	0.092947	1.462369	-0.502311	1.299022	-5.206526	-0.442678	-0.650877	3.604821	-1.775775	-1.370577	-8.739775	0.	0.	0.	-2.060281	0.657255	-6.201218	1.039526	-2.267205	0.708889	0.212167	1.866759	2.235265	0.	0.	0.	-0.000000	0.000000	0.000000	0.136183	2.554672	-5.910461	-1.707189	-1.781816	1.699680	2.576484	-1.635931	-5.367310	-0.837707	-1.824232	-0.772072	0.084093	1.049477	-18.627159	0.231219	-0.393648	-0.333762	-2.956449	-1.242125	7.998850	6.405680	-6.330791	2.713841	-6.463387	-0.602147	6.913602	-0.092682	-1.972701	-1.347217	0.253779	-1.336896	1.083086	
-0.220828	100.466928	0.090520	0.594874	0.075763	1.443389	-0.502459	1.311377	-5.224637	-0.437435	-0.614815	3.642113	-1.781113	-1.401871	-8.740675	0.	0.	0.	-2.032580	0.662208	-6.167983	1.025427	-2.249748	0.692919	0.198738	1.857875	2.237680	0.	0.	0.	-0.000000	-0.000001	0.000001	0.142266	2.561368	-5.943635	-1.728096	-1.771287	1.711167	2.595544	-1.637572	-5.353577	-0.836289	-1.826855	-0.744681	0.070726	1.049066	-18.588732	0.208198	-0.359333	-0.322445	-2.968769	-1.294002	8.016927	6.419316	-6.314568	2.969803	-6.942125	-0.663835	8.356725	-0.096660	-1.962845	-1.295245	0.290841	-1.312096	1.008731	
-0.234833	100.466463	0.090454	0.593867	0.067249	1.432881	-0.502100	1.318087	-5.236095	-0.435073	-0.597358	3.664166	-1.783799	-1.417619	-8.741129	0.	0.	0.	-2.018909	0.664422	-6.152391	1.018454	-2.240982	0.686999	0.192294	1.853614	2.238847	0.	0.	0.	-0.000000	-0.000000	-0.000000	0.144936	2.559078	-5.961380	-1.739036	-1.759746	1.718371	2.605152	-1.638910	-5.338594	-0.836391	-1.826789	-0.738568	0.045690	1.044181	-18.544033	0.196214	-0.335974	-0.315652	-2.983231	-1.321199	8.030125	6.431389	-6.306373	3.111561	-7.191541	-0.695158	9.105900	-0.098724	-1.952348	-1.267055	0.304898	-1.297581	0.964773	
-0.255748	100.463052	0.115278	0.583529	0.060135	1.353428	-0.494770	1.320475	-5.208510	-0.428932	-0.549482	3.716128	-1.788638	-1.461240	-8.744162	0.	0.	0.	-1.997654	0.669099	-6.115544	1.026330	-2.229948	0.727251	0.174306	1.841722	2.242058	0.	0.	0.	-0.000000	0.000000	0.000000	0.166843	2.565377	-5.985981	-1.778360	-1.756692	1.755255	2.635220	-1.644336	-5.291262	-0.836701	-1.826553	-0.719844	-0.106050	1.020825	-18.375816	0.154861	-0.299310	-0.274475	-3.021676	-1.440690	8.073215	6.455883	-6.242203	3.587972	-7.817248	-0.807677	11.129167	-0.110135	-1.953318	-1.163539	0.402785	-1.260953	0.864542	
-0.253635	100.461115	0.129324	0.575013	0.057644	1.289042	-0.487685	1.322216	-5.144082	-0.428932	-0.549482	3.716127	-1.783105	-1.460508	-8.747840	0.	0.	0.	-1.989836	0.669151	-6.051106	1.026330	-2.229948	0.727250	0.174306	1.841722	2.242057	0.	0.	0.	0.000000	0.000000	0.000000	0.184339	2.567224	-6.001809	-1.806035	-1.757946	1.790419	2.656130	-1.645675	-5.277716	-0.837207	-1.826154	-0.689240	-0.224859	1.002643	-18.252293	0.127011	-0.285416	-0.239198	-3.045214	-1.517517	8.106916	6.436431	-6.206960	3.931020	-8.048800	-0.867733	11.990296	-0.123771	-1.955012	-1.122438	0.453601	-1.236509	0.832748	
-0.252085	100.457491	0.165453	0.566025	0.055015	1.220051	-0.483056	1.315020	-5.236948	-0.424474	-0.480476	3.834193	-1.761226	-1.519150	-8.722872	0.	0.	0.	-1.998067	0.691583	-6.100208	1.063223	-2.239050	0.844145	0.160582	1.832644	2.244519	0.	0.	0.	-0.000000	-0.000001	0.000000	0.204026	2.569570	-6.017429	-1.834674	-1.763635	1.831345	2.677048	-1.644437	-5.277028	-0.839486	-1.825006	-0.644406	-0.337997	0.984866	-18.143787	0.096553	-0.271151	-0.201873	-3.054570	-1.597102	8.147447	6.381444	-6.182816	4.260902	-8.128632	-0.934763	12.454537	-0.140774	-1.957611	-1.090963	0.484624	-1.211235	0.811174	
-0.248324	100.456260	0.177136	0.561447	0.053689	1.185036	-0.479920	1.313869	-5.238111	-0.424317	-0.463190	3.852165	-1.753344	-1.534076	-8.710285	0.	0.	0.	-1.998190	0.697555	-6.095768	1.069340	-2.243952	0.874916	0.160582	1.832644	2.244518	0.	0.	0.	0.000000	-0.000000	-0.000000	0.214422	2.570743	-6.028443	-1.849299	-1.768198	1.855475	2.687831	-1.642821	-5.281834	-0.842894	-1.824165	-0.612285	-0.388187	0.976819	-18.102427	0.080314	-0.259074	-0.177257	-3.043305	-1.639221	8.170298	6.341324	-6.171431	4.408390	-8.153301	-0.978654	12.582835	-0.149800	-1.958990	-1.072848	0.500418	-1.198454	0.801406	
-0.240331	100.453944	0.199421	0.552666	0.051121	1.116756	-0.474021	1.311432	-5.241416	-0.423537	-0.429453	3.892237	-1.736903	-1.562640	-8.690778	0.	0.	0.	-1.998503	0.708870	-6.087604	1.079087	-2.253085	0.924069	0.162302	1.832546	2.255791	0.	0.	0.	0.000000	-0.000000	-0.000000	0.233318	2.572872	-6.047867	-1.872069	-1.796147	1.904577	2.705209	-1.621153	-5.301897	-0.850127	-1.821900	-0.543164	-0.465791	0.963382	-18.032223	0.049896	-0.235269	-0.131270	-3.021575	-1.717509	8.214846	6.276863	-6.156002	4.658552	-8.203710	-1.081245	12.754518	-0.166638	-1.961486	-1.042755	0.533185	-1.170966	0.780818	
-0.236570	100.452859	0.209613	0.548388	0.049870	1.083213	-0.470487	1.312326	-5.207851	-0.422696	-0.414155	3.886362	-1.729733	-1.576822	-8.691257	0.	0.	0.	-1.998072	0.713443	-6.079634	1.082348	-2.256708	0.940682	0.163680	1.832470	2.264852	0.	0.	0.	-0.000000	-0.000000	-0.000000	0.247856	2.573520	-6.095487	-1.886966	-1.815084	1.966618	2.713959	-1.607504	-5.318624	-0.852603	-1.820020	-0.505737	-0.484911	0.959097	-18.002964	0.029809	-0.223698	-0.070886	-3.011657	-1.742229	8.235743	6.256977	-6.165784	4.849608	-8.286960	-1.203233	12.944746	-0.182809	-1.963820	-1.023289	0.554271	-1.155818	0.802308	
-0.224611	100.449720	0.240166	0.535904	0.046244	0.984615	-0.463558	1.305285	-5.243944	-0.414835	-0.360254	4.021223	-1.710665	-1.617790	-8.710195	0.	0.	0.	-1.997431	0.727964	-6.058905	1.091015	-2.268275	0.983170	0.169100	1.832161	2.300506	0.	0.	0.	-0.000000	0.000000	-0.000001	0.268620	2.576868	-6.079473	-1.914674	-1.867491	1.990856	2.742921	-1.569101	-5.388564	-0.829267	-1.806660	-0.445895	-0.531864	0.950119	-17.901714	-0.007919	-0.225489	-0.078129	-3.005795	-1.775153	8.320092	6.283662	-6.163504	4.993856	-8.390457	-1.305510	13.186636	-0.200325	-1.966554	-1.006699	0.602693	-1.112934	0.744414	
-0.213775	100.446852	0.268236	0.524336	0.042902	0.891630	-0.455638	1.303360	-5.206455	-0.412661	-0.349572	4.076820	-1.694507	-1.622034	-8.721801	0.	0.	0.	-1.996062	0.740543	-6.031223	1.097178	-2.278359	1.011819	0.174697	1.831846	2.337363	0.	0.	0.	-0.000000	0.000000	0.000000	0.295136	2.579899	-6.111400	-1.948134	-1.926222	2.051642	2.775198	-1.530318	-5.480091	-0.783704	-1.787135	-0.413727	-0.568130	0.953255	-17.870207	-0.051655	-0.233237	-0.048538	-2.979776	-1.800590	8.351699	6.291328	-6.131784	5.113898	-8.509710	-1.439227	13.560506	-0.227534	-1.971076	-0.988477	0.651919	-1.074686	0.741547	
